<?xml version="1.0" encoding="UTF-8" standalone="no"?>
<svg
   xmlns:dc="http://purl.org/dc/elements/1.1/"
   xmlns:cc="http://creativecommons.org/ns#"
   xmlns:rdf="http://www.w3.org/1999/02/22-rdf-syntax-ns#"
   xmlns:svg="http://www.w3.org/2000/svg"
   xmlns="http://www.w3.org/2000/svg"
   xmlns:sodipodi="http://sodipodi.sourceforge.net/DTD/sodipodi-0.dtd"
   xmlns:inkscape="http://www.inkscape.org/namespaces/inkscape"
   width="210mm"
   height="297mm"
   viewBox="0 0 210 297"
   version="1.1"
   id="svg8"
   sodipodi:docname="bulldog-coin.svg"
   inkscape:version="1.0.2-2 (e86c870879, 2021-01-15)">
  <defs
     id="defs2" />
  <sodipodi:namedview
     id="base"
     pagecolor="#ffffff"
     bordercolor="#666666"
     borderopacity="1.0"
     inkscape:pageopacity="0.0"
     inkscape:pageshadow="2"
     inkscape:zoom="0.76738006"
     inkscape:cx="254.0534"
     inkscape:cy="614.05635"
     inkscape:document-units="mm"
     inkscape:current-layer="text13"
     inkscape:document-rotation="0"
     showgrid="false"
     inkscape:window-width="1920"
     inkscape:window-height="1001"
     inkscape:window-x="-9"
     inkscape:window-y="-9"
     inkscape:window-maximized="1"
     showguides="true"
     inkscape:snap-intersection-paths="true"
     inkscape:snap-smooth-nodes="true"
     inkscape:snap-nodes="true"
     inkscape:snap-others="false"
     inkscape:snap-global="false" />
  <metadata
     id="metadata5">
    <rdf:RDF>
      <cc:Work
         rdf:about="">
        <dc:format>image/svg+xml</dc:format>
        <dc:type
           rdf:resource="http://purl.org/dc/dcmitype/StillImage" />
        <dc:title></dc:title>
      </cc:Work>
    </rdf:RDF>
  </metadata>
  <g
     inkscape:label="Layer 1"
     inkscape:groupmode="layer"
     id="layer1">
    <g
       id="g42"
       transform="translate(77.563489,-1.0710917)"
       style="fill:#000000">
      <g
         id="g102">
        <g
           id="g65">
          <g
             id="g57"
             transform="translate(-109.75418,0.02201)">
            <g
               id="g73">
              <g
                 aria-label="bdog"
                 id="text13"
                 style="font-style:normal;font-variant:normal;font-weight:normal;font-stretch:normal;font-size:44.7781px;line-height:1.25;font-family:'Bebas Kai';-inkscape-font-specification:'Bebas Kai';fill:#1a1a1a;fill-opacity:1;stroke:none;stroke-width:1.11945"
                 transform="translate(-4.4196291e-6,-0.1566)">
                <path
                   id="path3015"
                   style="opacity:1;fill:#1a1a1a;stroke-width:3.2126"
                   d="M 400.94141 336.21875 A 263.23332 263.23332 0 0 0 137.80859 599.45117 A 263.23332 263.23332 0 0 0 401.04102 862.68555 A 263.23332 263.23332 0 0 0 664.27539 599.45117 A 263.23332 263.23332 0 0 0 401.04102 336.21875 A 263.23332 263.23332 0 0 0 400.94141 336.21875 z M 401.04102 358.35742 C 535.22343 358.35742 644.05078 466.31026 644.05078 599.44922 C 644.05078 732.58814 535.22343 840.54688 401.04102 840.54688 C 266.8586 840.54688 158.0332 732.58814 158.0332 599.44922 C 158.0332 466.31026 266.8586 358.35742 401.04102 358.35742 z M 401.04102 361.69531 C 268.64878 361.69531 161.37109 468.12919 161.37109 599.44922 C 161.37109 730.76921 268.64878 837.20117 401.04102 837.20117 C 533.43325 837.20117 640.71289 730.76921 640.71289 599.44922 C 640.71289 468.12919 533.43325 361.69531 401.04102 361.69531 z M 311.82227 415.71094 C 312.18242 415.71094 314.76544 420.22099 317.56055 425.73438 C 331.6501 453.52553 343.86015 477.28064 344.44727 478.03711 C 345.34154 479.18934 349.70833 487.27836 353.88867 495.5293 C 355.69374 499.09203 357.55302 502.48827 358.20312 503.43164 C 370.6259 503.54166 384.97919 504.15362 401.02344 504.92578 C 417.11508 504.14867 431.48305 503.52783 443.88867 503.41406 C 444.54627 502.45433 446.39559 499.07774 448.19336 495.5293 C 452.37367 487.27836 456.7385 479.18934 457.63281 478.03711 C 458.21992 477.28064 470.43197 453.52553 484.52148 425.73438 C 487.31667 420.22099 489.89958 415.71094 490.25977 415.71094 C 490.61988 415.71094 502.03814 423.08653 515.63477 432.09961 C 529.23131 441.11265 543.93165 450.80427 548.30078 453.63672 C 552.66992 456.46917 557.09449 459.40891 558.13477 460.16992 C 559.175 460.93093 561.89892 462.71719 564.1875 464.14062 C 566.47604 465.56415 568.52064 466.91095 568.72852 467.13281 C 569.56715 468.02652 573.85084 470.71528 577.23828 472.47461 L 580.83008 474.3418 L 580.83008 479.07227 C 580.83008 483.81244 583.53094 512.87969 584.28125 516.21875 C 584.79307 518.49656 583.01592 520.91216 571.83789 533.13281 C 568.62703 536.64312 568.37948 536.76172 564.26172 536.76172 L 560.00781 536.76172 L 557.23438 544.89453 C 555.70888 549.36768 552.53295 558.4751 550.17773 565.13281 C 545.01203 579.73547 538.76585 597.88674 534.23828 611.45898 L 530.89844 621.47266 L 530.89844 654.69336 L 530.89844 687.91406 L 528.04883 693.58203 L 525.20117 699.25 L 531.83203 710.7832 C 535.47931 717.12597 538.46484 722.55071 538.46484 722.83984 C 538.46484 723.12894 536.54726 726.91404 534.20312 731.25195 C 531.85903 735.58987 528.67496 741.52289 527.12891 744.43555 C 525.58281 747.34832 523.19398 751.77488 521.82031 754.27148 C 520.44664 756.76816 516.47296 764.07165 512.99023 770.50195 C 509.50751 776.93221 506.23835 782.46012 505.72656 782.78516 C 504.90161 783.30907 483.01011 783.32337 401.04102 782.84961 C 319.07157 783.32334 297.17844 783.309 296.35352 782.78516 C 295.84173 782.45997 292.57444 776.93221 289.0918 770.50195 C 285.609 764.07165 281.63539 756.76816 280.26172 754.27148 C 278.88816 751.77488 276.49922 747.34832 274.95312 744.43555 C 273.40708 741.52285 270.22308 735.58987 267.87891 731.25195 C 265.53477 726.91404 263.61914 723.12898 263.61914 722.83984 C 263.61914 722.5506 266.60272 717.12597 270.25 710.7832 L 276.88086 699.25 L 274.0332 693.58203 L 271.18359 687.91406 L 271.18359 654.69336 L 271.18359 621.47266 L 267.84375 611.45898 C 263.31618 597.88674 257.07196 579.73547 251.90625 565.13281 C 249.55106 558.4751 246.37512 549.36768 244.84961 544.89453 L 242.07422 536.76172 L 237.81836 536.76172 C 233.7006 536.76172 233.45302 536.64328 230.24219 533.13281 C 219.06414 520.91216 217.2909 518.49656 217.80273 516.21875 C 218.55307 512.87969 221.25 483.81244 221.25 479.07227 L 221.25 474.3418 L 224.84375 472.47461 C 228.23125 470.71528 232.51683 468.02652 233.35547 467.13281 C 233.56355 466.91107 235.60594 465.56415 237.89453 464.14062 C 240.18312 462.71719 242.907 460.93093 243.94727 460.16992 C 244.98754 459.40891 249.4121 456.46917 253.78125 453.63672 C 258.15032 450.80427 272.85068 441.11265 286.44727 432.09961 C 300.04385 423.08653 311.46208 415.71094 311.82227 415.71094 z M 489.82227 422.58398 C 489.79581 422.57643 489.77476 422.58084 489.75586 422.60352 C 489.62048 422.7652 484.56263 432.59985 478.51758 444.45898 C 472.47249 456.31801 463.3585 474.19113 458.26562 484.17773 C 453.17276 494.16434 448.71011 502.7077 448.34766 503.16211 C 448.29436 503.22938 448.26234 503.30634 448.22266 503.37891 C 455.94741 503.38454 462.96638 503.61865 469.33594 504.16797 C 472.59536 503.95998 475.12208 503.72627 475.53125 503.50781 C 476.08023 503.21452 479.42 496.70244 482.95117 489.03711 C 486.48231 481.37177 490.67447 472.37768 492.26758 469.04883 C 497.2304 458.67894 498.36719 455.94221 498.36719 454.35156 C 498.36719 452.65981 492.07204 427.75641 490.79688 424.40234 C 490.4139 423.39502 490.0086 422.64987 489.82227 422.58789 L 489.82227 422.58398 z M 312.25977 422.58789 L 312.25977 422.58984 C 312.0734 422.65198 311.66618 423.39701 311.2832 424.4043 C 310.00795 427.75836 303.71484 452.66176 303.71484 454.35352 C 303.71484 455.94421 304.84972 458.68089 309.8125 469.05078 C 311.40565 472.37964 315.59968 481.37568 319.13086 489.04102 C 322.66196 496.70635 325.99985 503.21647 326.54883 503.50977 C 326.96004 503.72951 329.51224 503.96325 332.79688 504.17188 C 339.16828 503.63254 346.17965 503.406 353.86914 503.39844 C 353.82757 503.31907 353.79219 503.23858 353.73438 503.16602 C 353.37196 502.7116 348.90737 494.16825 343.81445 484.18164 C 338.72154 474.19507 329.60951 456.32199 323.56445 444.46289 C 317.51936 432.60383 312.46148 422.76723 312.32617 422.60547 C 312.30841 422.58306 312.28818 422.58033 312.26172 422.58789 L 312.25977 422.58789 z M 497.18555 426.61523 L 517.09375 499.16016 L 541.98828 528.13477 L 565.33203 529.6875 L 577.54688 513.99023 L 574.06641 478.13281 L 497.18555 426.61523 z M 500.27344 460.71484 C 500.16837 460.72267 500.05454 460.72461 499.93359 460.72461 C 498.39767 460.72461 497.64014 461.92396 494.19336 469.80469 C 492.00943 474.79797 489.67152 480.10113 488.99805 481.58984 C 488.32461 483.07849 486.89026 486.4839 485.80859 489.15625 C 484.72693 491.82864 482.50424 496.86448 480.86914 500.34766 C 479.86076 502.49586 479.1682 504.03861 478.78711 505.29492 C 506.03913 509.61851 519.21305 522.2997 524.70508 553.33008 C 528.42606 541.92959 532.41211 528.99103 532.41211 527.72852 C 532.41211 525.85727 530.64703 523.4456 522.92383 514.75586 C 517.70509 508.88391 512.9713 503.34624 512.4043 502.45117 C 511.83733 501.55614 510.10947 495.54734 508.56641 489.09766 C 501.87902 461.14559 501.84893 460.66924 500.27344 460.71875 L 500.27344 460.7168 L 500.27344 460.71484 z M 301.81055 460.7168 L 301.80859 460.7207 C 300.2331 460.67127 300.20308 461.14755 293.51562 489.09961 C 291.97261 495.54934 290.2447 501.55807 289.67773 502.45312 C 289.11073 503.34815 284.37694 508.88586 279.1582 514.75781 C 271.435 523.44755 269.66992 525.85926 269.66992 527.73047 C 269.66992 528.91323 273.16969 540.34844 276.67188 551.16602 C 282.66487 521.65747 296.26674 509.48672 323.29297 505.28906 C 322.91165 504.03415 322.22118 502.49347 321.21484 500.34961 C 319.57974 496.86643 317.35705 491.83059 316.27539 489.1582 C 315.19369 486.48585 313.75547 483.08048 313.08203 481.5918 C 312.40856 480.10308 310.0726 474.79996 307.88867 469.80664 C 304.44189 461.92591 303.68432 460.72852 302.14844 460.72852 C 302.02749 460.72852 301.91524 460.72035 301.81055 460.7168 z M 445.71484 508.40625 C 444.05918 508.39777 442.44548 508.39913 440.89258 508.4082 C 433.43871 508.45167 427.36309 508.6582 424.50781 508.6582 L 415.66016 508.6582 L 406.99219 509.29492 L 399.97266 509.55078 L 400.51367 600.49414 C 400.51367 600.49414 406.66047 599.85316 414.25781 600.35742 L 425.78125 601.12305 C 428.02054 601.27166 449.07284 622.21276 461.86719 635.13281 C 465.05488 638.87281 469.41899 643.0475 471.89258 645.48242 C 476.21265 649.73496 479.62035 652.95747 484.10938 658.05469 C 488.38034 662.90537 496.69922 672.62109 496.69922 672.62109 C 496.69922 672.62109 507.21922 651.71064 510.91602 644.62305 C 514.68095 637.40498 523.04297 621.19922 523.04297 621.19922 C 523.04297 621.19922 523.71299 605.99495 523.92578 597.83594 C 524.21416 586.77133 523.007 575.50418 521.22461 564.49805 C 519.60996 554.52784 518.52628 544.1043 514.01367 535.06836 C 511.04425 529.12229 506.7226 523.59787 501.38281 519.64062 C 495.50251 515.28288 488.22512 512.86196 481.08008 511.27539 C 471.00157 509.03732 457.30449 508.4656 445.71484 508.40625 z M 267.20312 531.80664 C 266.63284 531.85608 265.33111 532.78986 264.07812 534.08008 L 261.47461 536.76172 L 253.38672 536.76172 C 247.23886 536.76172 245.37943 536.98606 245.63867 537.70508 C 246.36513 539.71919 253.12348 559.06348 258.52539 574.58789 C 261.63836 583.5343 265.93238 595.84194 268.06445 601.93945 C 270.19652 608.03693 271.93945 613.40116 271.93945 613.85742 C 271.93945 614.20714 272.31043 614.52567 272.69141 614.67383 C 272.46067 589.88062 273.30562 570.42927 275.9082 555.23047 C 275.18223 553.14304 274.4139 550.91874 273.81836 549.24414 C 271.89458 543.83477 269.82431 537.80429 269.21875 535.8457 C 268.61312 533.88704 267.79344 532.08595 267.39844 531.8418 C 267.3493 531.81065 267.28476 531.79908 267.20312 531.80664 z M 534.87891 531.80664 L 534.87891 531.80859 C 534.7984 531.80255 534.73077 531.81156 534.68164 531.8418 C 534.28672 532.08595 533.46887 533.88903 532.86328 535.84766 C 532.25765 537.80628 530.18749 543.83473 528.26367 549.24414 C 527.44196 551.55472 526.40186 554.55077 525.38086 557.50391 C 527.50628 571.86721 528.19685 589.90289 527.99805 612.39648 C 528.15134 612.95075 528.55948 614.38239 528.58594 614.49805 C 528.72975 615.1214 530.14258 614.54 530.14258 613.85742 C 530.14258 613.4012 531.88746 608.03693 534.01953 601.93945 C 536.1516 595.84194 540.44367 583.5343 543.55664 574.58789 C 548.95853 559.06348 555.71491 539.72114 556.44141 537.70703 C 556.70064 536.9882 554.84313 536.76172 548.69531 536.76172 L 540.60742 536.76172 L 538.00586 534.08008 C 536.754 532.79092 535.45195 531.85766 534.88086 531.80664 L 534.87891 531.80664 z M 471.5957 551.50586 C 474.46074 551.50873 477.31277 551.75344 480.06445 552.16016 C 487.89219 553.31711 495.43344 558.18712 500.46875 564.29102 C 504.70322 569.42411 507.26801 574.24009 507.22266 583.07617 C 507.17995 591.40546 505.8239 596.95483 503.11133 604.83008 C 501.72326 608.86 500.03473 617.11371 498.31641 620.24414 C 497.11731 622.42867 495.65988 626.87926 490.94727 628.5 C 481.68345 631.68599 475.24529 633.23395 463.375 624.90039 C 458.94237 621.78844 451.11838 611.76976 446.87109 608.05664 C 444.94036 604.92394 443.49727 602.39995 442.91602 600.99805 C 440.39046 594.90654 440.5584 588.37217 440.95117 586.41211 C 442.99072 576.2343 440.27497 567.47783 447.66406 560.1875 C 454.27264 553.66732 463.00072 551.4983 471.5957 551.50586 z M 472.36523 554.86914 C 471.7915 554.8578 471.21564 554.86196 470.64062 554.88086 C 463.43999 555.09803 456.19063 557.52776 450.21289 562.55469 C 445.77497 566.46113 445.1911 568.66744 445.24023 581.39844 C 445.26144 587.01591 445.52078 592.96559 445.81445 594.62109 C 446.33822 597.57324 446.39037 597.47856 448.59766 589.71484 C 453.22331 576.54984 462.43029 570.75297 472.26953 570.7832 C 473.75587 570.59725 475.27652 570.48349 476.79688 570.45703 C 477.27781 570.44762 477.75727 570.44752 478.23633 570.45508 C 481.5896 570.51113 484.86617 570.9743 487.63086 571.89258 C 492.22128 573.41724 498.03538 578.40464 502.52734 584.66992 C 502.802 585.05317 503.07679 585.39976 503.35156 585.75391 C 504.6329 567.06074 488.91715 555.17875 472.36523 554.87109 L 472.36523 554.86914 z M 329.7168 554.87109 L 329.7168 554.875 C 313.16575 555.1825 297.45275 567.06248 298.73242 585.75391 C 299.00644 585.4001 299.28029 585.05439 299.55469 584.67188 C 304.04662 578.40659 309.85879 573.41923 314.44922 571.89453 C 317.21387 570.97626 320.49236 570.51297 323.8457 570.45703 C 324.32476 570.44751 324.80628 570.45143 325.28711 570.45898 C 326.8075 570.48582 328.32823 570.5992 329.81445 570.78516 C 339.65321 570.75231 348.85876 576.5518 353.48438 589.7168 C 355.69168 597.48051 355.74573 597.57516 356.26953 594.62305 C 356.56316 592.9675 356.81912 587.01786 356.8418 581.40039 C 356.89082 568.66939 356.30905 566.46305 351.87109 562.55664 C 345.89339 557.52968 338.64194 555.10014 331.44141 554.88281 C 330.86635 554.86391 330.29053 554.85976 329.7168 554.87109 z M 303.33984 582.75391 C 302.92519 582.68361 301.47687 584.0785 300.12305 585.85352 C 299.62506 586.50639 299.2345 587.05908 298.91211 587.58398 C 299.01321 588.39329 299.13366 589.20823 299.29883 590.04102 C 299.66416 590.2668 300.8755 589.07306 301.99023 587.38867 C 302.6408 586.4343 303.33012 585.52831 304.03516 584.64844 C 303.81662 583.54444 303.56586 582.79246 303.33984 582.75391 z M 498.74219 582.75391 C 498.51617 582.79234 498.26532 583.54542 498.04688 584.64844 C 498.75246 585.52895 499.44269 586.43355 500.09375 587.38867 C 501.20845 589.07306 502.41772 590.26665 502.7832 590.04102 C 502.94848 589.20929 503.07058 588.39423 503.17188 587.58594 C 502.84922 587.06039 502.45563 586.50722 501.95703 585.85352 C 500.60317 584.0785 499.15684 582.68361 498.74219 582.75391 z M 304.33398 586.66406 C 304.31206 586.69354 304.29221 586.72159 304.26953 586.74805 C 301.50825 590.5097 301.46134 590.68172 301.92773 595.63672 C 303.39858 611.2617 308.56085 623.67257 314.75977 626.48828 C 318.5492 628.20952 327.44957 627.47135 333.43555 624.94141 C 339.32273 622.45327 341.33867 620.7258 343.6582 616.16992 C 345.29738 612.95037 349.68773 608.28935 353.75 605.46094 C 355.30652 604.37738 355.46573 603.83361 355.00977 601.13477 C 354.72301 599.43742 354.15563 597.84351 353.74805 597.5918 C 353.34046 597.33989 351.76783 598.37275 350.25391 599.88672 C 343.64189 606.49866 330.93757 609.76541 323.46484 606.77539 C 323.3764 606.73986 323.28413 606.69405 323.19531 606.65625 C 321.23733 606.44433 319.5212 606.07084 318.46875 605.5332 C 308.43085 600.40533 305.07851 596.20609 304.47266 588.00391 C 304.43788 587.53188 304.38425 587.10192 304.33398 586.66406 z M 497.74805 586.66406 C 497.69778 587.10196 497.64338 587.53188 497.60938 588.00391 C 497.00348 596.20609 493.65118 600.40533 483.61328 605.5332 C 482.56083 606.07084 480.84467 606.44422 478.88672 606.65625 C 478.7979 606.69329 478.70563 606.74137 478.61719 606.77539 C 471.14442 609.76537 458.44018 606.49675 451.82812 599.88477 C 450.31428 598.3708 448.74157 597.34008 448.33398 597.5918 C 447.9264 597.84355 447.35913 599.43738 447.07227 601.13477 C 446.6163 603.83361 446.77577 604.37738 448.33203 605.46094 C 452.39427 608.28935 456.7866 612.95041 458.42578 616.16992 C 460.74532 620.72584 462.75934 622.45323 468.64648 624.94141 C 474.63242 627.47135 483.53284 628.20952 487.32227 626.48828 C 493.52118 623.67257 498.68154 611.2617 500.15234 595.63672 C 500.61874 590.68172 500.57375 590.50966 497.8125 586.74805 C 497.79058 586.71857 497.77072 586.69052 497.74805 586.66406 z M 401.03906 604.01172 L 377.86133 604.27148 L 373.42773 607.31641 C 370.98899 608.98998 368.99414 610.60187 368.99414 610.90234 C 368.99414 610.93409 369.03006 610.97002 369.08789 611.00781 C 370.2572 611.30107 371.66067 611.60572 373.46094 611.91602 C 380.91681 613.20192 381.08086 613.19683 386.81055 611.57031 C 391.61058 610.20749 396.14751 609.68479 401.04102 610 C 405.93441 609.68479 410.47205 610.20783 415.27148 611.57031 C 421.00117 613.19717 421.16522 613.20226 428.62109 611.91602 C 430.42136 611.60549 431.82453 611.3011 432.99414 611.00781 C 433.05348 610.97077 433.08789 610.93258 433.08789 610.90234 C 433.08789 610.60183 431.09112 608.98998 428.65234 607.31641 L 424.21875 604.27148 L 401.03906 604.01172 z M 366.73438 614.66211 L 366.73633 614.66406 C 363.32587 614.69003 362.03248 616.18866 357.72461 621.04883 C 355.47764 623.5838 349.85904 629.58819 345.24023 634.39258 C 340.62139 639.197 332.0755 648.20338 326.25 654.4043 C 320.4245 660.60522 315.14958 666.22102 314.52539 666.88281 C 308.00608 673.79546 308.65994 671.41743 306.18359 697.15234 C 302.84465 731.85309 302.86778 728.7233 305.82812 743.84961 C 307.27599 751.24803 308.72032 759.12036 309.03516 761.3457 L 309.53711 764.89062 C 312.06387 765.66781 315.91664 766.76606 320.37305 767.95117 C 327.64856 769.88587 334.68155 771.73015 336 772.04688 C 337.86463 772.49493 339.1104 772.21663 341.61328 770.79492 C 343.38312 769.78968 348.57085 767.02264 353.13867 764.64648 C 361.97634 760.04914 361.57064 760.43878 370.10742 748.2207 C 372.43327 744.89181 378.76096 735.86986 384.16992 728.17188 C 389.57877 720.47388 395.18621 712.49375 396.63086 710.4375 L 399.25977 706.69922 L 398.72852 692.6582 C 398.12874 676.77221 398.43196 677.66811 391.0293 669.94922 C 388.41863 667.22698 385.27089 663.63904 384.0332 661.97461 C 382.79556 660.31018 378.50753 654.91163 374.50195 649.97852 C 368.69475 642.82663 367.32006 640.67854 367.72266 639.38477 C 368.00056 638.49238 370.58972 633.03879 373.47656 627.26367 C 376.36337 621.48867 378.44518 616.51601 378.10352 616.21289 C 378.09974 616.20885 378.09354 616.20651 378.0918 616.20508 C 376.85842 615.9359 375.23214 615.65884 373.18359 615.36328 C 370.27498 614.94379 368.28503 614.65077 366.73438 614.66211 z M 435.34766 614.66211 C 433.7968 614.65149 431.8101 614.94353 428.90039 615.36328 C 426.84951 615.65914 425.22245 615.93755 423.98828 616.20703 C 423.98828 616.20786 423.98172 616.2098 423.98047 616.21094 C 423.63876 616.51375 425.72062 621.48671 428.60742 627.26172 C 431.49426 633.03684 434.08353 638.49043 434.36133 639.38281 C 434.76392 640.67658 433.39119 642.82468 427.58398 649.97656 C 423.57837 654.90968 419.28846 660.30823 418.05078 661.97266 C 416.81314 663.63708 413.66532 667.22506 411.05469 669.94727 C 403.65214 677.66619 403.95517 676.77025 403.35547 692.65625 L 402.82422 706.69727 L 405.45312 710.43555 C 406.89777 712.4918 412.50518 720.47193 417.91406 728.16992 C 423.32302 735.86791 429.65068 744.88986 431.97656 748.21875 C 440.51334 760.43683 440.10963 760.04719 448.94727 764.64453 C 453.51509 767.02072 458.7009 769.78773 460.4707 770.79297 C 462.97358 772.21441 464.22127 772.49298 466.08594 772.04492 C 467.40435 771.72812 474.43554 769.88396 481.71094 767.94922 C 486.1684 766.76388 490.02214 765.66586 492.54883 764.88867 L 493.05078 761.34375 C 493.36577 759.11836 494.80804 751.24612 496.25586 743.84766 C 499.21606 728.72138 499.24144 731.85114 495.90234 697.15039 C 493.426 671.41547 494.0779 673.7935 487.55859 666.88086 C 486.93437 666.21906 481.65952 660.60326 475.83398 654.40234 C 470.00849 648.20142 461.4626 639.19505 456.84375 634.39062 C 452.22494 629.58625 446.60826 623.58183 444.36133 621.04688 C 440.05259 616.1858 438.75959 614.68857 435.34766 614.66211 z M 401.04102 615.5957 C 396.92738 615.5957 392.8136 616.28064 389.44336 617.64648 C 388.31997 618.10177 387.28017 618.63118 386.34961 619.23828 C 378.90496 624.09494 377.26953 641.21289 377.26953 641.21289 L 401.04102 668.62891 L 424.8125 641.21289 C 424.8125 641.21289 423.46855 627.15323 417.67578 620.90234 C 417.07646 620.2557 416.43035 619.69356 415.73242 619.23828 C 414.67903 618.55109 413.47339 617.97336 412.17773 617.48047 C 408.89484 616.23251 404.97316 615.5957 401.04102 615.5957 z M 276.56055 623.46875 C 274.31706 623.65954 274.38526 632.15781 278.66406 655.08594 L 279.20117 689.60156 L 286.3418 702.26562 C 290.26873 709.23145 294.89042 717.31383 296.61328 720.22656 L 296.95898 720.8125 C 297.15877 719.12169 297.37883 716.89007 297.65625 713.79688 C 298.12268 708.59549 299.19339 697.32453 300.0332 688.75195 L 301.55859 673.16602 L 288.4668 646.57617 C 283.50983 636.50755 279.16731 627.99814 276.72656 623.48633 C 276.67176 623.48255 276.6127 623.4652 276.56055 623.46875 z M 525.07617 624.00781 C 522.58686 628.64246 518.4058 636.83963 513.61328 646.57422 L 500.52344 673.16602 L 502.04883 688.75195 C 502.8886 697.32453 503.95751 708.59354 504.42383 713.79492 C 504.70121 716.88813 504.92116 719.11974 505.12109 720.81055 L 505.46875 720.22656 C 507.19157 717.31383 511.81522 709.23145 515.74219 702.26562 L 522.87891 689.60156 L 523.41797 655.08594 C 526.99669 635.90914 527.02667 626.69181 525.07617 624.00781 z M 401.04102 713.16797 L 400.50195 714.08398 C 398.66265 717.20814 395.65857 721.58253 386.41211 734.60156 C 380.90224 742.35953 376.1233 749.36403 374.73438 751.67578 C 379.53818 751.87341 390.35268 752.11886 401.03906 752.30859 C 411.72594 752.11886 422.54361 751.87345 427.34766 751.67578 C 425.95928 749.36403 421.17979 742.35953 415.66992 734.60156 C 406.42353 721.58253 403.41935 717.20814 401.58008 714.08398 L 401.04102 713.16797 z "
                   transform="matrix(0.26458333,0,0,0.26458333,32.190695,1.2056817)" />
              </g>
              <g
                 id="g77" />
            </g>
          </g>
        </g>
      </g>
    </g>
  </g>
</svg>
